<svg id="_09_laboratory" height="512" viewBox="0 0 354.98 367.74" width="512" xmlns="http://www.w3.org/2000/svg" data-name="09 laboratory"><path d="m436 402-72.37-125.17-54.32-94v-77.1a13.44 13.44 0 0 0 -13.41-13.41h-63.39a13.44 13.44 0 0 0 -13.41 13.41v77.52l-55.25 91.82-74.52 123.93a29.75 29.75 0 0 0 25.23 45l147.69 1.3 147.69 1.3a29.75 29.75 0 0 0 26.06-44.6z" fill="#d3ebf2" transform="translate(-85.02 -78.91)"/><rect fill="#c7dde2" height="29.26" rx="11" width="132.88" x="112.13"/><path d="m134.08 29.26h90.21v10.97h-90.21z" fill="#baced3"/><path d="m183.08 291.34c64.06 18 122.36-60.55 157.32 0l66.82 115.74a13.66 13.66 0 0 1 -11.83 20.49h-267.3a13.66 13.66 0 0 1 -11.83-20.49z" fill="#7dbbc9" transform="translate(-85.02 -78.91)"/><g fill="#fff"><circle cx="187.11" cy="229.8" r="15.24"/><circle cx="148.09" cy="271.25" r="12.8"/><circle cx="189.54" cy="291.98" r="9.14"/><circle cx="163.33" cy="324.28" r="6.1"/></g></svg>